<svg xmlns="http://www.w3.org/2000/svg" width="42" height="42" viewBox="0 0 42 42">
  <g id="Group_3771" data-name="Group 3771" transform="translate(-884 -562)">
    <circle id="Ellipse_377" data-name="Ellipse 377" cx="21" cy="21" r="21" transform="translate(884 562)" fill="#fafaf8" opacity="0.25"/>
    <g id="Group_3773" data-name="Group 3773" transform="translate(877.837 -396.526)">
      <path id="Path_20375" data-name="Path 20375" d="M21.438,972.131a6.57,6.57,0,0,0-1.938,3.032c.027,2.2,2.1,4.916,4.588,7.4s5.343,4.913,7.428,4.6a6.621,6.621,0,0,0,3.053-1.952,1.053,1.053,0,0,0-.007-1.388l-2.12-2.117a1.4,1.4,0,0,0-1.54-.119l-1.427,1.045c-.762.649-2.366-.943-3.431-2.007s-2.684-2.5-2-3.433l1.043-1.421a1.4,1.4,0,0,0-.106-1.516l-2.111-2.108a1.064,1.064,0,0,0-1.432-.015Z" fill="#fff"/>
    </g>
  </g>
</svg>
