<svg id="Group_3668" data-name="Group 3668" xmlns="http://www.w3.org/2000/svg" width="27.675" height="26.4" viewBox="0 0 27.675 26.4">
  <path id="Path_1056" data-name="Path 1056" d="M26.764,17.091a.91.91,0,0,1,.91.91h0v3.277a5.28,5.28,0,0,1-5.28,5.28H5.28A5.28,5.28,0,0,1,0,21.279H0V18a.91.91,0,1,1,1.821,0h0v3.277A3.459,3.459,0,0,0,5.28,24.738H22.395a3.459,3.459,0,0,0,3.459-3.459h0V18A.91.91,0,0,1,26.764,17.091ZM13.837.159a.91.91,0,0,1,.908.85l0,.06V16.088l3.931-3.668a.91.91,0,0,1,1.241,0l.046.046a.91.91,0,0,1,0,1.241l-.046.046-5.457,5.093q-.025.023-.051.045L14.4,18.9l-.033.025-.023.016-.024.016-.023.014-.037.02L14.244,19l-.034.016-.024.01-.03.012-.026.009-.024.008-.033.009a.894.894,0,0,1-.092.019l-.023,0-.06.006-.06,0h0a.915.915,0,0,1-.139-.011l-.043-.008a.909.909,0,0,1-.8-.226l-5.462-5.1A.91.91,0,1,1,8.632,12.42l4.295,4.009V1.069A.91.91,0,0,1,13.837.159Z" transform="translate(0 -0.159)" fill="#fff"/>
</svg>
