<svg xmlns="http://www.w3.org/2000/svg" width="42" height="42" viewBox="0 0 42 42">
  <g id="Group_3779" data-name="Group 3779" transform="translate(-884 -562)">
    <circle id="Ellipse_377" data-name="Ellipse 377" cx="21" cy="21" r="21" transform="translate(884 562)" fill="#fafaf8" opacity="0.25"/>
    <g id="Group_3682" data-name="Group 3682" transform="translate(894.505 575.731)">
      <path id="Path_20344" data-name="Path 20344" d="M3.908,8a1.882,1.882,0,0,0-.948.263L12.1,17.214a.543.543,0,0,0,.785,0l9.148-8.948A1.882,1.882,0,0,0,21.082,8ZM2.28,8.931A1.884,1.884,0,0,0,2,9.908V21.358a1.878,1.878,0,0,0,.225.876L8.684,15.2Zm20.435.007-6.53,6.386,6.548,6.971a1.881,1.881,0,0,0,.257-.937V9.908a1.956,1.956,0,0,0-.276-.971ZM9.366,15.87l-6.5,7.079a1.892,1.892,0,0,0,1.046.317H21.082a1.885,1.885,0,0,0,.987-.284L15.5,15.992l-1.947,1.9a1.522,1.522,0,0,1-2.119,0Z" transform="translate(-2 -8)" fill="#fafaf8"/>
    </g>
  </g>
</svg>
