<svg xmlns="http://www.w3.org/2000/svg" width="17.999" height="17.999" viewBox="0 0 17.999 17.999">
  <g id="Слой_3" data-name="Слой 3" transform="translate(-0.001)">
    <path id="Path_65" data-name="Path 65" d="M8.589,18.811a3.15,3.15,0,0,1-.509-.174l-2.74,2.74a1.972,1.972,0,1,1-2.789-2.789L6.734,14.4a1.8,1.8,0,0,1,.641-.418A.734.734,0,0,1,7.62,13.9a1.35,1.35,0,0,1,.342-.063,1.993,1.993,0,0,1,.788.091,2.06,2.06,0,0,1,.774.481,1.882,1.882,0,0,1,.425.634c.014,0,.035-.007.049-.007a.965.965,0,0,0,.572-.279l.955-.955a4.037,4.037,0,0,0-.607-.788,3.934,3.934,0,0,0-1.771-1.018,1.723,1.723,0,0,0-.2-.049A.813.813,0,0,0,8.68,11.9a2.153,2.153,0,0,0-.223-.028.01.01,0,0,0-.014,0,1.587,1.587,0,0,0-.362-.014,3.839,3.839,0,0,0-.5.035H7.571l-.2.028a4.468,4.468,0,0,0-1.025.356,3.888,3.888,0,0,0-1.011.732L1.156,17.193a3.944,3.944,0,1,0,5.578,5.578l3.835-3.835A5,5,0,0,1,8.589,18.811Z" transform="translate(0 -5.928)" fill="#fff"/>
    <path id="Path_66" data-name="Path 66" d="M23.32,1.156a3.943,3.943,0,0,0-5.578,0L13.907,4.991a5.023,5.023,0,0,1,2.5.286L19.136,2.55a1.972,1.972,0,1,1,2.789,2.789L19.2,8.065l-.39.39-.4.4-.669.669a1.935,1.935,0,0,1-1.178.565,2.017,2.017,0,0,1-.5-.014,1.536,1.536,0,0,1-.474-.126,1.972,1.972,0,0,1-1.06-1.06.987.987,0,0,0-.621.286l-.955.955a3.857,3.857,0,0,0,1.395,1.395,2.912,2.912,0,0,0,.467.23,2.838,2.838,0,0,0,.516.181,3.937,3.937,0,0,0,2.8-.286,3.868,3.868,0,0,0,.711-.46l.007-.007c.1-.084.2-.174.293-.265l.349-.349L23.32,6.734a3.943,3.943,0,0,0,0-5.578Z" transform="translate(-6.476 0)" fill="#fff"/>
  </g>
</svg>
