<svg xmlns="http://www.w3.org/2000/svg" width="42" height="42" viewBox="0 0 42 42">
  <g id="Group_3778" data-name="Group 3778" transform="translate(-884 -562)">
    <circle id="Ellipse_377" data-name="Ellipse 377" cx="21" cy="21" r="21" transform="translate(884 562)" fill="#fafaf8" opacity="0.25"/>
    <g id="Group_3775" data-name="Group 3775" transform="translate(885.884 570.463)">
      <path id="Path_20377" data-name="Path 20377" d="M22.925,50.366l-.443.759a6.283,6.283,0,0,1,3.5.731c-.338.29-2.008.737-4.63.737s-4.292-.447-4.63-.737a6.7,6.7,0,0,1,3.379-.69l-.494-.788c-1.7.138-3.728.505-3.728,1.476,0,1.5,4.913,1.544,5.473,1.544s5.473-.043,5.473-1.544C26.823,50.856,24.7,50.494,22.925,50.366Z" transform="translate(-2.166 -30.034)" fill="#fff"/>
      <path id="Path_20378" data-name="Path 20378" d="M19.116,21.855a.4.4,0,0,0,.335-.179c.262-.391,6.414-9.632,6.414-13.218a6.749,6.749,0,1,0-13.5,0c0,3.586,6.152,12.827,6.414,13.218A.4.4,0,0,0,19.116,21.855ZM15.547,8.311a3.637,3.637,0,1,1,3.637,3.637A3.636,3.636,0,0,1,15.547,8.311Z" transform="translate(0)" fill="#fff"/>
    </g>
  </g>
</svg>
