<svg version="1.2" xmlns="http://www.w3.org/2000/svg" viewBox="0 0 29 29" width="29" height="29">
	<title>Group 3793-svg</title>
	<style>
		.s0 { opacity: .2;fill: #ffffff } 
		.s1 { fill: #ffffff } 
	</style>
	<g id="Group_3793">
		<path id="Ellipse_381" class="s0" d="m14.5 29c-8 0-14.5-6.5-14.5-14.5 0-8 6.5-14.5 14.5-14.5 8 0 14.5 6.5 14.5 14.5 0 8-6.5 14.5-14.5 14.5z"/>
		<g id="Group_3792">
			<path id="Path_20386" class="s1" d="m19.3 14.5q0-0.1-0.1-0.2 0-0.1 0-0.2-0.1-0.1-0.1-0.2-0.1-0.1-0.1-0.1l-5.5-5.8c-0.2-0.2-0.5-0.3-0.8-0.3-0.3 0-0.6 0.1-0.9 0.3-0.2 0.2-0.3 0.5-0.3 0.8 0 0.3 0.1 0.6 0.3 0.8l4.7 5-4.7 4.9c-0.2 0.2-0.3 0.5-0.3 0.8 0 0.3 0.1 0.6 0.3 0.8 0.3 0.2 0.6 0.3 0.9 0.3 0.3 0 0.6-0.1 0.8-0.3l5.5-5.8q0 0 0.1-0.1 0.1-0.1 0.1-0.2 0-0.1 0.1-0.3 0-0.1 0-0.2z"/>
		</g>
	</g>
</svg>